<?xml version="1.0" encoding="utf-8"?>
<!-- Generator: Adobe Illustrator 24.1.1, SVG Export Plug-In . SVG Version: 6.00 Build 0)  -->
<svg version="1.1" id="ef04c495-accd-4443-98ec-52c036c3f732"
	 xmlns="http://www.w3.org/2000/svg" xmlns:xlink="http://www.w3.org/1999/xlink" x="0px" y="0px" viewBox="0 0 213 257"
	 style="enable-background:new 0 0 213 257;" xml:space="preserve">
<style type="text/css">
	.st0{fill:#FFFFFF;stroke:#E6E6E6;stroke-miterlimit:10;}
</style>
<path class="st0" d="M107.6,89.2c2.6,0,5.2,0.2,7.8,0.7l41.9-38.8c-13.6-5.9-30-8.9-48.6-8.9C45.8,42.3,7,84.4,7,145.8
	c-0.2,13.2,1.9,26.4,6,39l58.5-54.3C74.6,105.2,86.4,89.2,107.6,89.2z"/>
<path class="st0" d="M140.2,113.5l56.9-14.9c-4.3-18.3-14.1-32-28.4-41.3l-32.8,46.4C137.8,106.8,139.2,110.1,140.2,113.5z"/>
<path class="st0" d="M116.1,172.6h29c-3.2,13.4-20.8,25-33.8,25c-15.4,0-25.4-5.7-31.6-14.6L47,229.4c15.6,10.2,34.5,15.2,54.2,15.2
	c30.5,0,46.5-5.7,57-18v13l45,0.5V133.8H116L116.1,172.6z"/>
<path class="st0" d="M203.1,8.6l-45.9,42.5c4,1.7,7.8,3.8,11.4,6.2L203.1,8.6z"/>
<path class="st0" d="M115.4,90l-43.9,40.7c-0.6,5-0.9,10-0.9,14.9c0,14.2,2.4,27.7,9.1,37.4l56.1-79.3
	C131.3,96.4,123.8,91.4,115.4,90z"/>
</svg>
