<svg id="ef04c495-accd-4443-98ec-52c036c3f732" data-name="Layer 1" xmlns="http://www.w3.org/2000/svg" viewBox="0 0 739.16 291.78"><path d="M377.62,85.87a42.1,42.1,0,0,1,7.77.72L427.3,47.75c-13.57-5.93-30-8.87-48.6-8.87C315.82,38.88,277,81.07,277,142.47a120.43,120.43,0,0,0,6,39l58.54-54.26C344.66,101.86,356.42,85.87,377.62,85.87Z" transform="translate(-5.04 -1.63)" style="fill:#fff;stroke:#e6e6e6;stroke-miterlimit:10"/><path d="M410.27,110.17l56.88-14.91C462.82,77,453,63.24,438.73,53.91L405.9,100.32A38.33,38.33,0,0,1,410.27,110.17Z" transform="translate(-5.04 -1.63)" style="fill:#fff;stroke:#e6e6e6;stroke-miterlimit:10"/><path d="M386.15,169.26h29c-3.24,13.35-20.8,25-33.75,25-15.38,0-25.37-5.71-31.61-14.63L317,226.05c15.62,10.21,34.5,15.21,54.18,15.21,30.5,0,46.48-5.72,57-18v13l45,.46V130.46H386Z" transform="translate(-5.04 -1.63)" style="fill:#fff;stroke:#e6e6e6;stroke-miterlimit:10"/><path d="M473.15,5.26,427.3,47.75a76.52,76.52,0,0,1,11.43,6.16Z" transform="translate(-5.04 -1.63)" style="fill:#fff;stroke:#e6e6e6;stroke-miterlimit:10"/><path d="M385.39,86.59l-43.88,40.66a122,122,0,0,0-.86,14.95c0,14.2,2.35,27.73,9.14,37.44l56.11-79.32A30,30,0,0,0,385.39,86.59Z" transform="translate(-5.04 -1.63)" style="fill:#fff;stroke:#e6e6e6;stroke-miterlimit:10"/><path d="M48.9,284.76a8.08,8.08,0,0,1-8.14,8.15H13.68a8.09,8.09,0,0,1-8.14-8.15V273.9a7.83,7.83,0,0,1,2.37-5.77,7.83,7.83,0,0,1,5.77-2.37H48.9v8.14H43.47c0-1.81-.88-2.71-2.64-2.71H13.68A2.39,2.39,0,0,0,11,273.9v10.86a2.4,2.4,0,0,0,2.71,2.72H40.76a2.4,2.4,0,0,0,2.71-2.72v-2.71H21.83v-5.43H48.9Z" transform="translate(-5.04 -1.63)" style="fill:#fff;stroke:#e6e6e6;stroke-miterlimit:10"/><path d="M95.12,284.76A8.21,8.21,0,0,1,87,292.91H59.83a8.08,8.08,0,0,1-8.14-8.15V273.9a8.08,8.08,0,0,1,8.14-8.14H87a8.19,8.19,0,0,1,8.14,8.14Zm-5.43,0V273.9a2.58,2.58,0,0,0-.8-1.91,2.61,2.61,0,0,0-1.91-.8H59.76a2.52,2.52,0,0,0-1.88.8,2.66,2.66,0,0,0-.76,1.91v10.86a2.4,2.4,0,0,0,2.71,2.72H87a2.73,2.73,0,0,0,2.71-2.72Z" transform="translate(-5.04 -1.63)" style="fill:#fff;stroke:#e6e6e6;stroke-miterlimit:10"/><path d="M138.49,292.91H97.91V265.83h5.36v21.65h27.07a2.41,2.41,0,0,0,2.72-2.72h5.43Z" transform="translate(-5.04 -1.63)" style="fill:#fff;stroke:#e6e6e6;stroke-miterlimit:10"/><path d="M181.85,284.76a8.09,8.09,0,0,1-8.14,8.15H141.27V265.83h32.44a8.09,8.09,0,0,1,8.14,8.14Zm-5.43,0V274a2.73,2.73,0,0,0-2.71-2.71H146.63v16.22h27.08a2.61,2.61,0,0,0,1.91-.8A2.65,2.65,0,0,0,176.42,284.76Z" transform="translate(-5.04 -1.63)" style="fill:#fff;stroke:#e6e6e6;stroke-miterlimit:10"/><path d="M225.28,292.91H184.63V265.76h40.65v8.14h-5.43c0-1.81-.88-2.71-2.64-2.71H190.06v5.43h27.15v5.43H190.06v5.43h27.15a2.33,2.33,0,0,0,2.64-2.72h5.43Z" transform="translate(-5.04 -1.63)" style="fill:#fff;stroke:#e6e6e6;stroke-miterlimit:10"/><path d="M268.72,292.91h-5.43v-19a2.61,2.61,0,0,0-.8-1.91,2.65,2.65,0,0,0-1.92-.8H233.43v21.72h-5.36V265.76h32.5a8.09,8.09,0,0,1,8.15,8.14Z" transform="translate(-5.04 -1.63)" style="fill:#fff;stroke:#e6e6e6;stroke-miterlimit:10"/><path d="M293.22,282.05H271.5v-5.43h21.72Z" transform="translate(-5.04 -1.63)" style="fill:#fff;stroke:#e6e6e6;stroke-miterlimit:10"/><path d="M339.37,273.9h-5.43a2.4,2.4,0,0,0-2.72-2.71H320.36v21.72h-5.43V271.19H304.08a2.4,2.4,0,0,0-2.72,2.71H296v-8.14h43.37Z" transform="translate(-5.04 -1.63)" style="fill:#fff;stroke:#e6e6e6;stroke-miterlimit:10"/><path d="M382.8,292.91h-5.43v-8.15a2.4,2.4,0,0,0-2.72-2.71H347.58v10.86h-5.43V265.76h32.5a8.09,8.09,0,0,1,8.15,8.14,7.93,7.93,0,0,1-2,5.43,7.93,7.93,0,0,1,2,5.43Zm-5.43-19a2.4,2.4,0,0,0-2.72-2.71H347.58v5.43h27.07A2.41,2.41,0,0,0,377.37,273.9Z" transform="translate(-5.04 -1.63)" style="fill:#fff;stroke:#e6e6e6;stroke-miterlimit:10"/><path d="M429,292.91h-5.36V282.05H391v10.86h-5.43v-19a7.89,7.89,0,0,1,2.37-5.74,7.73,7.73,0,0,1,5.71-2.4h27.21a7.73,7.73,0,0,1,5.71,2.4A7.89,7.89,0,0,1,429,273.9Zm-5.36-16.29V273.9a2.61,2.61,0,0,0-.8-1.91,2.65,2.65,0,0,0-1.92-.8H393.66a2.5,2.5,0,0,0-1.88.8,2.67,2.67,0,0,0-.77,1.91v2.72Z" transform="translate(-5.04 -1.63)" style="fill:#fff;stroke:#e6e6e6;stroke-miterlimit:10"/><path d="M472.31,284.76a8.09,8.09,0,0,1-8.14,8.15H431.73V265.83h32.44a8.09,8.09,0,0,1,8.14,8.14Zm-5.43,0V274a2.73,2.73,0,0,0-2.71-2.71H437.09v16.22h27.08a2.61,2.61,0,0,0,1.91-.8A2.65,2.65,0,0,0,466.88,284.76Z" transform="translate(-5.04 -1.63)" style="fill:#fff;stroke:#e6e6e6;stroke-miterlimit:10"/><path d="M515.74,292.91H475.1V265.76h40.64v8.14h-5.43c0-1.81-.88-2.71-2.64-2.71H480.52v5.43h27.15v5.43H480.52v5.43h27.15a2.33,2.33,0,0,0,2.64-2.72h5.43Z" transform="translate(-5.04 -1.63)" style="fill:#fff;stroke:#e6e6e6;stroke-miterlimit:10"/><path d="M564.61,265.76l-20.12,27.15H538l-19.49-27.15h7l15.8,21.93,16.29-21.93Z" transform="translate(-5.04 -1.63)" style="fill:#fff;stroke:#e6e6e6;stroke-miterlimit:10"/><path d="M610.76,292.91h-5.37V282.05H572.82v10.86h-5.43v-19a7.89,7.89,0,0,1,2.37-5.74,7.71,7.71,0,0,1,5.71-2.4h27.21a7.73,7.73,0,0,1,5.71,2.4,7.89,7.89,0,0,1,2.37,5.74Zm-5.37-16.29V273.9a2.61,2.61,0,0,0-.79-1.91,2.65,2.65,0,0,0-1.92-.8H575.47a2.5,2.5,0,0,0-1.88.8,2.63,2.63,0,0,0-.77,1.91v2.72Z" transform="translate(-5.04 -1.63)" style="fill:#fff;stroke:#e6e6e6;stroke-miterlimit:10"/><path d="M654.12,292.91H613.54V265.83h5.36v21.65H646a2.41,2.41,0,0,0,2.72-2.72h5.43Z" transform="translate(-5.04 -1.63)" style="fill:#fff;stroke:#e6e6e6;stroke-miterlimit:10"/><path d="M700.27,284.76a8.21,8.21,0,0,1-8.15,8.15H665a7.7,7.7,0,0,1-5.71-2.41,7.88,7.88,0,0,1-2.37-5.74v-19h5.36v19a2.73,2.73,0,0,0,2.72,2.72h27.14a2.73,2.73,0,0,0,2.72-2.72v-19h5.43Z" transform="translate(-5.04 -1.63)" style="fill:#fff;stroke:#e6e6e6;stroke-miterlimit:10"/><path d="M743.7,292.91H703.05V265.76H743.7v8.14h-5.43c0-1.81-.88-2.71-2.64-2.71H708.48v5.43h27.15v5.43H708.48v5.43h27.15a2.33,2.33,0,0,0,2.64-2.72h5.43Z" transform="translate(-5.04 -1.63)" style="fill:#fff;stroke:#e6e6e6;stroke-miterlimit:10"/></svg>